<svg xmlns="http://www.w3.org/2000/svg" viewBox="0 0 900 900" role="img" aria-label="Dragon head watermark">
  <g fill="none" stroke="#6f867c" stroke-width="18" stroke-linecap="round" stroke-linejoin="round" opacity="0.72">
    <path d="M646 190c-82 18-136 57-162 112 72-31 142-30 205 4-56 14-104 41-142 82 89-25 161-9 217 48-58-8-112 2-164 31 59 29 96 74 111 134-61-42-125-61-193-56 43 55 58 112 46 171-38-69-91-111-160-126 20 58 14 116-18 174-14-75-48-128-103-158-5 70-34 128-88 174 15-86-2-156-52-210-39 22-80 28-122 18 56-34 91-78 104-132-44-21-73-56-87-104 49 28 100 35 153 22 10-55 38-99 83-133-30-30-43-67-39-111 37 43 82 63 135 59 33-35 75-58 126-69 1-49 22-87 63-115 1 51 25 86 86 104Z" />
    <path d="M363 320c76-26 150-21 224 16" />
    <path d="M289 429c87-21 175-4 265 51" />
    <path d="M239 539c72-6 141 15 205 64" />
    <path d="M508 250c-18 39-19 82-3 128" />
    <path d="M414 226c-2 43 13 82 45 117" />
    <path d="M611 401c-35 16-63 41-85 76" />
    <path d="M525 538c-27 22-47 50-59 83" />
  </g>
  <g fill="#6f867c" opacity="0.28">
    <path d="M650 186c-67 20-119 56-157 109 69-24 134-16 196 25-65 13-122 45-171 97 103-29 185-7 246 66-68-18-132-10-192 25 72 36 116 92 132 168-74-63-146-88-217-75 47 74 53 143 16 207-34-83-91-135-171-154 12 68-7 128-58 181-2-84-31-145-88-182-46 31-94 42-143 31 69-43 107-96 114-160-48-27-80-70-96-128 57 32 116 38 178 18 9-72 48-126 116-164-33-39-46-85-38-138 43 54 94 78 153 72 36-40 83-67 142-82 1-50 21-90 60-118 5 53 36 88 92 104Z" />
  </g>
</svg>
